<?xml version="1.0" encoding="UTF-8"?>
<svg version="1.1" xmlns="http://www.w3.org/2000/svg" width="512" height="512">
<path d="M0 0 C2.26190222 1.67842996 4.32881391 3.4426145 6.39453125 5.35546875 C7.0184375 5.90074219 7.64234375 6.44601563 8.28515625 7.0078125 C18.45793576 16.40657618 22.89874238 28.81050104 23.48415017 42.44234002 C23.51530232 44.67182904 23.51653597 46.89924133 23.50564575 49.12892151 C23.50564477 49.97611329 23.50564378 50.82330506 23.50564277 51.69616932 C23.50461527 54.51565122 23.49661644 57.33507051 23.48876953 60.15454102 C23.486889 62.18374592 23.48554485 64.21295138 23.48469543 66.24215698 C23.48241698 70.60241262 23.47770207 74.96265665 23.4715004 79.3229084 C23.46307982 86.21870469 23.46853972 93.11444549 23.47750854 100.01023865 C23.47897955 101.17520624 23.48045056 102.34017384 23.48196614 103.54044348 C23.48503659 105.92192911 23.48815661 108.30341467 23.49132514 110.68490016 C23.51249982 126.73229816 23.5261566 142.77951339 23.49414062 158.8269043 C23.47262402 169.66217979 23.47573365 180.49713579 23.50754917 191.33239025 C23.52340614 197.06324801 23.52662086 202.79349445 23.49979019 208.52432442 C23.47478622 213.91156215 23.48227457 219.29777423 23.51466942 224.68496323 C23.52076359 226.66063776 23.51491095 228.63639107 23.49617577 230.61198616 C23.03757332 240.67299033 23.03757332 240.67299033 25.93157578 250.01193047 C27.66495688 251.75172388 29.35452103 253.00883376 31.39453125 254.35546875 C43.42704654 270.53066664 48.69066741 290.48840206 46.12207031 310.47558594 C42.96561571 329.90611241 33.36734944 346.95135624 17.54858398 358.85327148 C0.88594986 370.78129964 -18.07159721 375.35239489 -38.421875 372.89453125 C-58.68581968 369.30238256 -75.62721719 358.85245638 -87.8984375 342.25390625 C-99.20721379 324.81335445 -103.06754043 305.23290972 -99.48046875 284.79296875 C-96.63573177 272.13058134 -91.29702229 258.69289943 -81.0178709 250.22342587 C-77.9186558 246.53895891 -77.90806554 243.66843956 -77.97969055 239.06581116 C-77.97274601 238.23428872 -77.96580146 237.40276628 -77.95864648 236.5460462 C-77.94138896 233.76078201 -77.95969055 230.97689251 -77.9777832 228.19165039 C-77.97260471 226.19394259 -77.96520497 224.1962395 -77.95574951 222.19854736 C-77.94017339 217.8954276 -77.94036768 213.59269733 -77.95275307 209.28956795 C-77.97229261 202.47600024 -77.9570953 195.66277855 -77.93730164 188.84922791 C-77.91013066 178.0606234 -77.90666309 167.27215956 -77.91307467 156.4835276 C-77.92399368 137.19602669 -77.89929379 117.9085695 -77.85932702 98.62111181 C-77.84630415 91.85854718 -77.84496926 85.09611179 -77.85345995 78.33354104 C-77.8571059 74.10895029 -77.85276005 69.884392 -77.84661865 65.6598053 C-77.84554053 63.71287349 -77.84785215 61.76593611 -77.85396385 59.8190136 C-77.91691441 38.73807322 -76.26001245 21.74112192 -61.29296875 5.66796875 C-57.47651397 1.99348275 -53.37833235 -0.39756625 -48.60546875 -2.64453125 C-47.85265625 -3.03898437 -47.09984375 -3.4334375 -46.32421875 -3.83984375 C-32.07599287 -10.28761685 -13.02621332 -8.22194274 0 0 Z M-49.87109375 18.33203125 C-58.65324337 27.53702511 -59.60724975 35.37862178 -60.60546875 48.35546875 C-38.49546875 48.35546875 -16.38546875 48.35546875 6.39453125 48.35546875 C6.39453125 36.34799932 3.95814125 27.56256993 -4.19921875 18.60546875 C-17.06222189 6.47056013 -36.71731503 6.85649327 -49.87109375 18.33203125 Z M-60.60546875 65.35546875 C-60.58863037 71.0337085 -60.57179199 76.71194824 -60.55444336 82.56225586 C-60.50538257 101.31382871 -60.5052154 120.06516581 -60.53031063 138.81677914 C-60.54433173 150.18702868 -60.54159922 161.55681104 -60.49926758 172.92700195 C-60.46240877 182.83866441 -60.45714606 192.74975712 -60.48963934 202.66144377 C-60.50574258 207.90863703 -60.50614952 213.15476177 -60.46870232 218.40186882 C-60.43392828 223.34442133 -60.44151507 228.28512785 -60.48109818 233.2276268 C-60.48822082 235.0379799 -60.48008312 236.8484699 -60.45524406 238.65866661 C-60.28025063 252.34748802 -60.28025063 252.34748802 -63.60359383 257.38304329 C-65.82621396 259.61267071 -68.0896852 261.47338024 -70.60546875 263.35546875 C-79.89535008 275.36355976 -85.13352812 290.1130765 -83.60546875 305.35546875 C-80.70889994 321.64866833 -74.3405752 335.10122856 -60.8671875 345.4609375 C-47.62017249 354.24856132 -33.45559471 358.19120103 -17.59765625 355.92578125 C-2.10548073 352.57947134 11.34854577 344.22300536 20.26953125 331.04296875 C28.25988217 317.52083643 31.71874149 302.93865926 28.33203125 287.41796875 C24.55177841 274.19579408 17.98748783 264.83224766 8.39453125 255.35546875 C6.48818689 253.44912439 7.21063609 249.95469356 7.18920898 247.35717773 C7.17930939 246.62551392 7.16940979 245.8938501 7.15921021 245.14001465 C7.12750742 242.71056403 7.10280332 240.28109382 7.078125 237.8515625 C7.05756303 236.17146788 7.03656677 234.49137852 7.01515198 232.81129456 C6.95985299 228.38079072 6.91047838 223.9502396 6.86230469 219.51965332 C6.81214665 215.0019915 6.75643092 210.48439867 6.70117188 205.96679688 C6.59349465 197.09641305 6.49207107 188.22596943 6.39453125 179.35546875 C5.16476562 179.28199219 5.16476562 179.28199219 3.91015625 179.20703125 C2.8325 179.13226563 1.75484375 179.0575 0.64453125 178.98046875 C-0.4228125 178.91085938 -1.49015625 178.84125 -2.58984375 178.76953125 C-5.43308906 178.37913746 -7.21683972 177.90696144 -9.60546875 176.35546875 C-11.16321811 173.23997003 -11.17027497 169.75102995 -10.60546875 166.35546875 C-9.5390625 164.64453125 -9.5390625 164.64453125 -7.60546875 163.35546875 C-2.94251657 162.64435497 1.67380201 162.57201596 6.39453125 162.35546875 C6.39453125 154.76546875 6.39453125 147.17546875 6.39453125 139.35546875 C4.49703125 139.23171875 2.59953125 139.10796875 0.64453125 138.98046875 C-3.23518945 138.72744349 -6.3008754 138.50191022 -9.60546875 136.35546875 C-11.15133751 133.26373123 -10.89906396 130.76117323 -10.60546875 127.35546875 C-8.36914031 124.30443875 -7.12262683 123.45290433 -3.37109375 122.74609375 C-0.11588542 122.61588542 3.13932292 122.48567708 6.39453125 122.35546875 C6.39453125 114.76546875 6.39453125 107.17546875 6.39453125 99.35546875 C4.49703125 99.23171875 2.59953125 99.10796875 0.64453125 98.98046875 C-3.23518945 98.72744349 -6.3008754 98.50191022 -9.60546875 96.35546875 C-11.15133751 93.26373123 -10.89906396 90.76117323 -10.60546875 87.35546875 C-8.36914031 84.30443875 -7.12262683 83.45290433 -3.37109375 82.74609375 C-0.11588542 82.61588542 3.13932292 82.48567708 6.39453125 82.35546875 C6.39453125 76.74546875 6.39453125 71.13546875 6.39453125 65.35546875 C-15.71546875 65.35546875 -37.82546875 65.35546875 -60.60546875 65.35546875 Z " fill="#000000" transform="translate(462.60546875,22.64453125)"/>
<path d="M0 0 C0.85271484 0.63421875 0.85271484 0.63421875 1.72265625 1.28125 C19.67663912 15.2030145 30.69480623 39.38120876 33.765625 61.4296875 C34.08976954 64.98447267 34.13717471 68.43345746 34 72 C34.60585938 72.03738281 35.21171875 72.07476562 35.8359375 72.11328125 C51.40920657 73.3351839 51.40920657 73.3351839 56.1875 78.25 C57.28673937 81.9705025 57.08312349 84.27676299 56 88 C54 90.5 54 90.5 51 92 C49.06347656 91.95849609 49.06347656 91.95849609 46.890625 91.6484375 C46.09462891 91.54305664 45.29863281 91.43767578 44.47851562 91.32910156 C43.66060547 91.22049805 42.84269531 91.11189453 42 91 C40.45381402 90.8495149 38.90691527 90.70616527 37.359375 90.5703125 C35.82291667 90.421875 34.28645833 90.2734375 32.75 90.125 C31.97398437 90.05925781 31.19796875 89.99351562 30.3984375 89.92578125 C24.76752953 89.35884683 21.10087954 88.10087954 17 84 C16.76522081 81.23019994 16.6317794 78.52429931 16.5625 75.75 C15.56899627 51.97450951 6.86632818 30.6652097 -10.75 14.3125 C-28.795884 -0.61832069 -49.88325082 -6.73451032 -73 -5 C-91.95308601 -2.53035546 -107.47749494 5.70324627 -121 19 C-121.69996094 19.68707031 -122.39992187 20.37414062 -123.12109375 21.08203125 C-135.07433749 33.64109241 -141.75534322 50.05068176 -143.34765625 67.1953125 C-144.1507154 70.64798599 -145.58955799 72.43919015 -148 75 C-150.87367814 76.43683907 -152.80420241 76.31842881 -156 76 C-158.97265625 74.20703125 -158.97265625 74.20703125 -162.0625 71.8125 C-174.02633828 62.94059664 -187.23203636 59.65512589 -202 61 C-210.43539745 62.62219182 -217.24344054 65.75713003 -224 71 C-225.03125 71.7425 -226.0625 72.485 -227.125 73.25 C-236.71491149 82.42295882 -243.28063855 95.66885476 -244 109 C-243.80273421 113.55893059 -243.4985784 118.11406673 -243.01904297 122.65209961 C-242.65728488 127.04863384 -242.51286115 129.23743656 -244.94140625 133.0390625 C-248.85667893 135.54923732 -252.06780787 136.01622265 -256.625 136.5 C-264.13791796 137.52988104 -270.36023303 139.17941278 -277 143 C-277.78632813 143.44214844 -278.57265625 143.88429688 -279.3828125 144.33984375 C-291.25073505 151.60140314 -298.15518107 162.76436519 -301.875 176 C-305.14445475 190.94607885 -302.02152081 205.06770066 -294 218 C-284.86622228 230.17837029 -272.902251 237.3603023 -258 240 C-255.10602682 240.25751786 -252.23507086 240.29092783 -249.33081055 240.28710938 C-248.51662155 240.29394241 -247.70243256 240.30077545 -246.86357117 240.30781555 C-245.11381937 240.32130042 -243.36402933 240.33041943 -241.61423302 240.33552551 C-238.84406973 240.3438786 -236.07422608 240.36443763 -233.30415344 240.38806152 C-226.43259469 240.44420408 -219.56095877 240.47973497 -212.68927002 240.51568604 C-206.86353434 240.54692864 -201.03795794 240.58609036 -195.21235085 240.63594055 C-192.48470044 240.6559892 -189.75717338 240.66432093 -187.02946472 240.67224121 C-185.36037747 240.68521072 -183.69129437 240.6987306 -182.0222168 240.71289062 C-181.26527527 240.71190872 -180.50833374 240.71092682 -179.72845459 240.70991516 C-176.01810877 240.75381209 -173.10633726 240.84976637 -170 243 C-167.70031437 246.21955988 -167.44651362 249.12559532 -168 253 C-170.75607829 256.63887759 -172.24142531 257.87448097 -176.79646301 258.62818909 C-178.29742407 258.65472384 -179.7990261 258.65388419 -181.30004883 258.63110352 C-182.12363892 258.63825882 -182.947229 258.64541412 -183.79577637 258.65278625 C-186.51676109 258.66967961 -189.23609761 258.65024894 -191.95703125 258.62890625 C-193.86211787 258.62973576 -195.76720442 258.63219825 -197.67228699 258.63621521 C-201.67131021 258.6390748 -205.669774 258.62437177 -209.66870117 258.59692383 C-214.75105241 258.56309534 -219.83238681 258.56877246 -224.91478443 258.5875864 C-228.85554689 258.59825794 -232.79608078 258.58912327 -236.73682213 258.57420158 C-238.60757451 258.56907608 -240.47835137 258.56943179 -242.34910011 258.57574654 C-265.04902883 258.62354807 -284.81427518 253.59817497 -301.59716797 237.43505859 C-315.48141263 223.23185809 -321.38657797 204.4940116 -321.21484375 185.01171875 C-320.47469903 165.93805134 -311.64115165 148.62270807 -298.015625 135.57421875 C-287.71524864 126.78153997 -274.71002439 119.80647202 -261 119 C-261.33 118.34 -261.66 117.68 -262 117 C-263.99710013 99.10291038 -256.77121957 80.87230322 -246 67 C-234.53579277 53.84834497 -219.86054593 44.10388311 -202.00756836 42.86132812 C-186.52565382 42.1562694 -172.58451323 44.03216051 -159 52 C-158.87625 51.319375 -158.7525 50.63875 -158.625 49.9375 C-153.87218668 27.59927738 -138.65684039 6.96612707 -120.10546875 -6.02734375 C-82.20005854 -30.37841492 -35.02282003 -28.94673625 0 0 Z " fill="#000000" transform="translate(324,122)"/>
<path d="M0 0 C4.16507424 1.7585869 6.20882468 3.85201505 8 8 C8.41171361 13.84252897 7.24600758 18.76542215 5.70507812 24.33178711 C5.46123886 25.23989136 5.2173996 26.14799561 4.96617126 27.08361816 C4.16283524 30.06717427 3.347141 33.0471989 2.53125 36.02734375 C1.96997726 38.10221487 1.40948204 40.17729646 0.84973145 42.25257874 C-0.62210649 47.70115161 -2.10446457 53.14680781 -3.58905029 58.59191895 C-5.10350582 64.15395348 -6.60796877 69.71868858 -8.11328125 75.28320312 C-11.0657611 86.19146452 -14.0293647 97.09666999 -17 108 C-15.84292038 108.27062256 -14.68584076 108.54124512 -13.49369812 108.82006836 C-11.95501882 109.18079083 -10.41634844 109.54155131 -8.87768555 109.90234375 C-8.1174987 110.08003296 -7.35731186 110.25772217 -6.57408905 110.4407959 C-0.61809353 111.83859576 5.2987712 113.33966128 11.1875 115 C12.06212891 115.23460937 12.93675781 115.46921875 13.83789062 115.7109375 C20.2863376 117.52685141 25.42469736 119.21696533 28.875 125.3125 C30.51340081 130.68281376 30.93786478 134.153162 28.3515625 139.24609375 C25.91944867 143.33144087 22.98211908 146.9226651 19.9375 150.5625 C18.76856363 151.97967117 17.6006109 153.39765421 16.43359375 154.81640625 C15.85335449 155.52039551 15.27311523 156.22438477 14.67529297 156.94970703 C12.23863328 159.93179215 9.86617692 162.96189708 7.5 166 C3.01878737 171.74070807 -1.55958118 177.39695159 -6.1640625 183.0390625 C-9.65530083 187.32451618 -13.09818888 191.64329453 -16.5 196 C-20.44195165 201.0484644 -24.4503742 206.03751462 -28.5 211 C-34.42465971 218.26332952 -40.23269816 225.61143615 -46 233 C-49.15625989 237.04352475 -52.32105972 241.07989715 -55.50390625 245.10253906 C-56.56252071 246.44515518 -57.61678641 247.79120552 -58.66796875 249.13964844 C-60.39370888 251.35111655 -62.1331037 253.55124529 -63.875 255.75 C-64.6781665 256.78809814 -64.6781665 256.78809814 -65.49755859 257.84716797 C-68.32325933 261.38527491 -70.40343773 263.94567301 -75 265 C-79.34239958 265.32074542 -82.34458531 264.44623979 -85.9375 262 C-88.96388309 257.59798824 -89.40739986 253.05984847 -88.7036171 247.77396393 C-88.188821 245.4505794 -87.5804419 243.17572755 -86.92626953 240.88769531 C-86.69393616 240.02634476 -86.46160278 239.1649942 -86.222229 238.27754211 C-85.45742728 235.45672866 -84.67029144 232.64268334 -83.8828125 229.828125 C-83.34424604 227.85795925 -82.80714926 225.88739121 -82.27145386 223.91644287 C-80.86213142 218.7458506 -79.43398476 213.58064919 -78.00146484 208.41644287 C-76.26320821 202.13656711 -74.54719873 195.85058421 -72.82777214 189.56553268 C-71.48998336 184.67720185 -70.14897215 179.78983082 -68.79812622 174.90509033 C-68.55031403 174.00701157 -68.30250183 173.1089328 -68.04718018 172.18363953 C-67.58575463 170.51209011 -67.12299064 168.84090932 -66.65859985 167.17018127 C-65.6368337 163.46391701 -64.68348301 159.78739209 -64 156 C-65.52753906 155.87044922 -65.52753906 155.87044922 -67.0859375 155.73828125 C-73.07996781 154.98473847 -78.85129354 153.33197906 -84.6640625 151.72631836 C-86.62455226 151.18762303 -88.58924163 150.66676387 -90.5546875 150.14648438 C-91.80765625 149.80294922 -93.060625 149.45941406 -94.3515625 149.10546875 C-95.48416504 148.79762451 -96.61676758 148.48978027 -97.78369141 148.17260742 C-102.83373217 146.33145471 -107.27558816 143.74516765 -110 139 C-110.6171875 136.6328125 -110.6171875 136.6328125 -110.875 134.125 C-110.97554687 133.30257812 -111.07609375 132.48015625 -111.1796875 131.6328125 C-110.73278729 125.08475294 -106.03605906 120.31312994 -102 115.5 C-100.82194137 114.07372166 -99.64487407 112.64662401 -98.46875 111.21875 C-97.88222656 110.50847656 -97.29570312 109.79820312 -96.69140625 109.06640625 C-94.24734139 106.08047019 -91.87033491 103.0445635 -89.5 100 C-85.01890019 94.25920595 -80.44041656 88.60304565 -75.8359375 82.9609375 C-72.34469917 78.67548382 -68.90181112 74.35670547 -65.5 70 C-61.55804835 64.9515356 -57.5496258 59.96248538 -53.5 55 C-47.57534029 47.73667048 -41.76730184 40.38856385 -36 33 C-30.06773028 25.4000937 -24.10166801 17.82787129 -18.0625 10.3125 C-17.24676514 9.28697021 -17.24676514 9.28697021 -16.41455078 8.24072266 C-11.5437336 2.21025937 -8.28343685 -1.20456353 0 0 Z M-18 38 C-25.30675879 46.78426333 -32.52771507 55.60037293 -39.4453125 64.6953125 C-42.9027885 69.20565986 -46.517828 73.58831363 -50.11352539 77.98852539 C-53.62347642 82.28956736 -57.0842413 86.62385226 -60.5 91 C-64.44186461 96.04855517 -68.45102702 101.03697316 -72.5 106 C-74.66856715 108.66512636 -76.83480984 111.33212966 -79 114 C-79.53818359 114.66193359 -80.07636719 115.32386719 -80.63085938 116.00585938 C-82.17796061 117.91476748 -83.71529923 119.83111586 -85.25 121.75 C-85.71599609 122.32234375 -86.18199219 122.8946875 -86.66210938 123.484375 C-88.90357199 126.30570162 -90.28071634 128.48287283 -91 132 C-89.40345581 132.43082886 -89.40345581 132.43082886 -87.7746582 132.87036133 C-83.81225957 133.94178422 -79.85265381 135.02322969 -75.89379883 136.10766602 C-74.18262631 136.57490853 -72.47071629 137.03945898 -70.75805664 137.5012207 C-68.2911236 138.16685556 -65.82703768 138.84224612 -63.36328125 139.51953125 C-62.22080681 139.82441216 -62.22080681 139.82441216 -61.05525208 140.13545227 C-55.80075535 141.59414707 -51.40835141 142.96031865 -48.1875 147.625 C-45.18520091 156.15785003 -47.79491464 164.11197605 -50.17889595 172.4966526 C-50.76487752 174.55812803 -51.33636011 176.62316916 -51.90452576 178.68962097 C-53.11105539 183.06752222 -54.33599775 187.44015991 -55.5625 191.8125 C-56.98783278 196.90003414 -58.40549057 201.98953527 -59.80778313 207.0834713 C-60.3708513 209.11546268 -60.94577187 211.14384799 -61.52137756 213.1723175 C-61.86180588 214.40427353 -62.20223419 215.63622955 -62.55297852 216.90551758 C-62.8572023 217.98867752 -63.16142609 219.07183746 -63.47486877 220.18782043 C-63.98755108 222.9333336 -63.94450843 224.40997946 -63 227 C-57.15302097 219.71423556 -51.31605667 212.42236879 -45.5625 205.0625 C-41.05743484 199.30380171 -36.45883826 193.62571656 -31.83618164 187.96118164 C-28.344813 183.67568562 -24.90188166 179.35679581 -21.5 175 C-17.55804402 169.95153007 -13.54939406 164.96267938 -9.5 160 C-5.25915385 154.79635693 -1.03900908 149.57792038 3.125 144.3125 C3.57423828 143.74853516 4.02347656 143.18457031 4.48632812 142.60351562 C6.91442274 139.51897761 9.01270382 136.38054422 11 133 C10.17910889 132.77860352 9.35821777 132.55720703 8.51245117 132.32910156 C5.41196349 131.49043612 2.31268324 130.64747154 -0.78588867 129.80175781 C-2.11681378 129.43940499 -3.44818221 129.0786758 -4.7800293 128.71972656 C-27.31837135 122.64158987 -27.31837135 122.64158987 -31.625 118.4375 C-36.11031518 110.48625945 -33.66360924 102.87551028 -31.38243103 94.59088135 C-31.19719313 93.93688606 -31.01195522 93.28289078 -30.82110405 92.60907745 C-30.23620641 90.54320264 -29.6643045 88.47410011 -29.09547424 86.40374756 C-27.88748544 82.01598 -26.66352479 77.63275665 -25.4375 73.25 C-24.01261768 68.1544818 -22.59439936 63.05728284 -21.19221687 57.95546722 C-20.62897132 55.91910561 -20.05407367 53.88627293 -19.47862244 51.85333252 C-19.13819412 50.6181488 -18.79776581 49.38296509 -18.44702148 48.11035156 C-18.1427977 47.02417542 -17.83857391 45.93799927 -17.52513123 44.81890869 C-17.01310567 42.07035136 -17.05405821 40.5923621 -18 38 Z " fill="#000000" transform="translate(271,242)"/>
<path d="M0 0 C10.22066477 8.02225763 22.62379523 20.19454103 24.5 33.5625 C24 37 24 37 21.875 39.9375 C18.50089427 42.35805411 17.06071623 42.60478752 13 42 C8.8886604 40.58369207 7.77817267 38.26632591 5.8125 34.5 C-2.32205894 20.01736308 -14.26626367 9.9534917 -30.1328125 5.02734375 C-47.21519082 0.60239033 -63.84903615 3.17731563 -79.03125 12.02734375 C-92.87621901 21.22696131 -101.5823647 34.81017664 -105.3125 51 C-107.67783088 65.46755783 -104.96988625 79.01354188 -97.984375 91.8203125 C-96.3404628 95.46040381 -96.45608057 98.05658412 -97 102 C-98.0625 104.4375 -98.0625 104.4375 -100 106 C-103.65050318 107.01402866 -105.93142286 107.44636766 -109.46875 105.96875 C-112.80244219 103.3758783 -114.35393722 100.29850574 -116.125 96.5625 C-116.64429077 95.4943103 -116.64429077 95.4943103 -117.17407227 94.40454102 C-119.98356866 88.43561572 -121.83089061 82.50065135 -123 76 C-123.226875 74.88625 -123.45375 73.7725 -123.6875 72.625 C-125.50092317 51.58929124 -121.40169314 31.44283135 -108.21484375 14.5859375 C-80.14895348 -18.18235061 -35.83358575 -24.53973187 0 0 Z " fill="#000000" transform="translate(189,69)"/>
<path d="M0 0 C3.0314436 3.19031057 3.36883049 5.44599221 3.34057617 9.77832031 C3.34023628 11.51967255 3.34023628 11.51967255 3.33988953 13.29620361 C3.32440567 14.54423767 3.30892181 15.79227173 3.29296875 17.078125 C3.28872391 18.35983582 3.28447906 19.64154663 3.28010559 20.96209717 C3.26867648 24.36199635 3.23922666 27.76150823 3.20599365 31.16125488 C3.17525063 34.63349163 3.16159126 38.10579124 3.14648438 41.578125 C3.11435458 48.3855753 3.06318203 55.19276903 3 62 C3.94093506 62.13954102 4.88187012 62.27908203 5.85131836 62.42285156 C13.27309805 63.78325221 20.0545525 69.86950364 24.33984375 75.87890625 C30.3011894 84.98507773 31.2452873 94.3461488 30 105 C27.27424572 115.28352751 22.27949833 122.09035259 13.29296875 127.67578125 C3.83489711 133.13793847 -6.88346955 133.66642738 -17.453125 131.19140625 C-26.86283281 127.70498887 -33.44340413 121.51750191 -38 112.625 C-42.08512277 103.68879394 -42.87536611 91.98910994 -39.5625 82.5625 C-35.6432518 74.44702493 -28.43585123 66.50813929 -20 63 C-18.00335312 62.64713691 -16.00344203 62.31197938 -14 62 C-14.00444122 61.2947821 -14.00888245 60.58956421 -14.01345825 59.86297607 C-14.05355497 53.21254309 -14.08399456 46.5621439 -14.10362434 39.91161728 C-14.11405552 36.49262072 -14.12820243 33.07372416 -14.15087891 29.65478516 C-14.17679333 25.722994 -14.18647832 21.79124315 -14.1953125 17.859375 C-14.20563507 16.63321472 -14.21595764 15.40705444 -14.22659302 14.14373779 C-14.22674408 13.00285706 -14.22689514 11.86197632 -14.22705078 10.68652344 C-14.231492 9.68280701 -14.23593323 8.67909058 -14.24050903 7.6449585 C-13.9919578 4.91155719 -13.45311196 3.30737751 -12 1 C-8.56485055 -1.77454378 -4.00872814 -1.43227658 0 0 Z M-20.6015625 84.7265625 C-24.00385407 89.34531586 -24.76400905 93.63641354 -24.48828125 99.31640625 C-23.46223369 104.95556362 -20.49181626 108.61474204 -16.375 112.4375 C-11.2926477 115.78115283 -5.88820594 115.58552188 0 115 C5.40498041 113.2418744 8.76354904 109.4739175 12 105 C13.69868838 99.90393486 14.01153119 94.00710632 12.28125 88.86328125 C9.48783936 83.67069131 5.36144409 80.27572087 0 78 C-8.58277533 76.73390737 -14.69284712 78.35667909 -20.6015625 84.7265625 Z " fill="#000000" transform="translate(441,226)"/>
<path d="M0 0 C13.11069655 7.0726526 23.60571119 18.37447745 28.421875 32.62109375 C29.28187956 36.16061665 29.32008618 38.91879258 28.89453125 42.56640625 C26.75851191 45.89859643 25.26181235 46.45956084 21.45703125 47.56640625 C17.02351064 47.56640625 16.0247303 46.60602076 12.89453125 43.56640625 C11.5234375 40.83203125 11.5234375 40.83203125 10.45703125 37.81640625 C6.49145466 27.71216622 0.30731897 20.08663421 -9.671875 15.34765625 C-15.76149813 13.00753906 -21.93466034 11.67388895 -28.35546875 10.5703125 C-31.10546875 9.56640625 -31.10546875 9.56640625 -32.98828125 7.1953125 C-34.52024787 3.59037007 -34.07740157 1.31528999 -33.10546875 -2.43359375 C-26.32915631 -11.6740198 -8.09714544 -3.73792752 0 0 Z " fill="#000000" transform="translate(291.10546875,137.43359375)"/>
<path d="M0 0 C5.34771713 -0.10654479 5.34771713 -0.10654479 8.05111694 1.62640381 C10.10602673 4.83206308 10.47832212 7.27564878 10.61361694 11.06390381 C9.81791229 13.74036492 9.16252079 14.69143334 6.86361694 16.25140381 C0.53469192 18.53684896 -6.1310489 18.25549224 -12.76919556 18.30218506 C-13.86102142 18.31025681 -14.95284729 18.31832855 -16.07775879 18.3266449 C-18.37902254 18.3404373 -20.68030634 18.35118097 -22.9815979 18.35906982 C-25.33842954 18.3706437 -27.69523389 18.39117949 -30.0519104 18.42059326 C-33.45785321 18.46309039 -36.86302121 18.4794091 -40.26919556 18.48968506 C-41.32341705 18.50719315 -42.37763855 18.52470123 -43.46380615 18.54273987 C-50.73245619 18.52107124 -50.73245619 18.52107124 -54.02261353 16.22088623 C-55.81399489 13.38757897 -56.31789023 11.42005217 -56.38638306 8.06390381 C-54.78226457 4.53484314 -53.64478944 3.23617473 -50.38638306 1.06390381 C-48.25718689 0.78543091 -48.25718689 0.78543091 -45.76651001 0.74505615 C-44.83156204 0.72518646 -43.89661407 0.70531677 -42.93333435 0.68484497 C-41.92397324 0.67329376 -40.91461212 0.66174255 -39.87466431 0.64984131 C-38.83247238 0.63047516 -37.79028046 0.61110901 -36.71650696 0.59115601 C-33.37738278 0.53133794 -30.0382215 0.48503988 -26.69888306 0.43890381 C-24.46774819 0.40071219 -22.23662788 0.36165977 -20.00552368 0.32171631 C-14.98202767 0.23495601 -9.95860945 0.14844395 -4.93463135 0.09509277 C-3.28957206 0.07495828 -1.64459295 0.04403977 0 0 Z " fill="#000000" transform="translate(361.3863830566406,361.93609619140625)"/>
<path d="M0 0 C2.74936913 2.53231367 3.89194074 4.0324986 4.30932617 7.76953125 C3.93031856 11.72772279 2.66431893 14.06340541 0.67578125 17.5 C0.3325029 18.09876953 -0.01077545 18.69753906 -0.36445618 19.31445312 C-1.09063418 20.57514587 -1.82304029 21.83226934 -2.5612793 23.0859375 C-3.6797169 24.98677227 -4.77780431 26.89822575 -5.87304688 28.8125 C-14.82735691 44.28555581 -14.82735691 44.28555581 -19.31640625 45.76171875 C-23.37816543 45.6275041 -25.34586917 45.54244996 -28.5625 42.875 C-30.24745312 39.50509375 -30.31464619 37.73391605 -30 34 C-28.81005859 31.15087891 -28.81005859 31.15087891 -27.1484375 28.2265625 C-26.54386719 27.1540625 -25.93929688 26.0815625 -25.31640625 24.9765625 C-24.67574219 23.87054688 -24.03507812 22.76453125 -23.375 21.625 C-22.75753906 20.52671875 -22.14007812 19.4284375 -21.50390625 18.296875 C-9.40847859 -2.94014956 -9.40847859 -2.94014956 0 0 Z " fill="#000000" transform="translate(45,464)"/>
<path d="M0 0 C1.88556324 2.97720511 2.57380605 5.41112239 2.1875 8.875 C0.90968615 12.09276761 -0.85627259 14.97380552 -2.65234375 17.92675781 C-4.07189305 20.31059692 -5.42609467 22.72742008 -6.78125 25.1484375 C-7.85386834 27.05745932 -8.92678802 28.96631185 -10 30.875 C-10.52295654 31.80779785 -11.04591309 32.7405957 -11.5847168 33.70166016 C-12.08656494 34.5838623 -12.58841309 35.46606445 -13.10546875 36.375 C-13.5543042 37.1690625 -14.00313965 37.963125 -14.46557617 38.78125 C-16.26562835 41.57937352 -17.61019828 43.60929796 -20.93359375 44.34375 C-27.14617496 44.42756223 -27.14617496 44.42756223 -30.375 41.75 C-32.06750845 38.36498309 -32.14672884 36.62794504 -31.8125 32.875 C-30.49902344 29.81054688 -30.49902344 29.81054688 -28.671875 26.59375 C-28.34842102 26.01717651 -28.02496704 25.44060303 -27.69171143 24.84655762 C-26.66043726 23.01572844 -25.61162769 21.1956445 -24.5625 19.375 C-23.87257908 18.15297474 -23.18376627 16.93032317 -22.49609375 15.70703125 C-13.92290002 0.54708422 -13.92290002 0.54708422 -10.4375 -1.5625 C-6.54740067 -2.39609271 -3.41792892 -2.12147312 0 0 Z " fill="#000000" transform="translate(392.8125,465.125)"/>
<path d="M0 0 C2.375 1.625 2.375 1.625 4 4 C4.44440297 9.21223411 3.72752602 12.35674149 1.1484375 16.87109375 C0.54386719 17.94037109 -0.06070312 19.00964844 -0.68359375 20.11132812 C-1.64458984 21.7577832 -1.64458984 21.7577832 -2.625 23.4375 C-3.24246094 24.53126953 -3.85992187 25.62503906 -4.49609375 26.75195312 C-12.17110584 40.17110584 -12.17110584 40.17110584 -17 45 C-23.95389774 45.45599329 -23.95389774 45.45599329 -27.4375 43.9375 C-29.20477613 41.7460776 -30.05423433 39.92951665 -30.26953125 37.1015625 C-29.72939882 32.89009512 -27.33261548 29.52002075 -25.16015625 25.94824219 C-23.74060695 23.56440308 -22.38640533 21.14757992 -21.03125 18.7265625 C-19.95863166 16.81754068 -18.88571198 14.90868815 -17.8125 13 C-17.02806519 11.60080322 -17.02806519 11.60080322 -16.2277832 10.17333984 C-15.72593506 9.2911377 -15.22408691 8.40893555 -14.70703125 7.5 C-14.03377808 6.30890625 -14.03377808 6.30890625 -13.34692383 5.09375 C-9.79808208 -0.42281096 -6.45186471 -1.71171921 0 0 Z " fill="#000000" transform="translate(334,464)"/>
<path d="M0 0 C2.82971502 2.28202824 2.97800741 3.83170885 3.44921875 7.4375 C3.35827989 13.55817128 -0.06333428 18.3291773 -3.125 23.4375 C-3.69476563 24.42298828 -4.26453125 25.40847656 -4.8515625 26.42382812 C-14.73156133 43.36578067 -14.73156133 43.36578067 -18 45 C-25.0521327 45.56872038 -25.0521327 45.56872038 -28.5 43.5 C-30.65411632 39.90980613 -30.80445008 37.01445537 -30 33 C-27.93535045 28.41737567 -25.36008097 24.16187481 -22.75 19.875 C-22.05963691 18.71055948 -21.37082145 17.54519996 -20.68359375 16.37890625 C-9.51570541 -2.42217956 -9.51570541 -2.42217956 0 0 Z " fill="#000000" transform="translate(278,464)"/>
<path d="M0 0 C2.375 1.625 2.375 1.625 4 4 C4.44440297 9.21223411 3.72752602 12.35674149 1.1484375 16.87109375 C0.54386719 17.94037109 -0.06070313 19.00964844 -0.68359375 20.11132812 C-1.64458984 21.7577832 -1.64458984 21.7577832 -2.625 23.4375 C-3.24246094 24.53126953 -3.85992187 25.62503906 -4.49609375 26.75195312 C-12.17110584 40.17110584 -12.17110584 40.17110584 -17 45 C-23.95389774 45.45599329 -23.95389774 45.45599329 -27.4375 43.9375 C-29.20477613 41.7460776 -30.05423433 39.92951665 -30.26953125 37.1015625 C-29.72939882 32.89009512 -27.33261548 29.52002075 -25.16015625 25.94824219 C-23.74060695 23.56440308 -22.38640533 21.14757992 -21.03125 18.7265625 C-19.95863166 16.81754068 -18.88571198 14.90868815 -17.8125 13 C-17.02806519 11.60080322 -17.02806519 11.60080322 -16.2277832 10.17333984 C-15.72593506 9.2911377 -15.22408691 8.40893555 -14.70703125 7.5 C-14.03377808 6.30890625 -14.03377808 6.30890625 -13.34692383 5.09375 C-9.79808208 -0.42281096 -6.45186471 -1.71171921 0 0 Z " fill="#000000" transform="translate(158,464)"/>
<path d="M0 0 C2.82971502 2.28202824 2.97800741 3.83170885 3.44921875 7.4375 C3.35827989 13.55817128 -0.06333428 18.3291773 -3.125 23.4375 C-3.69476563 24.42298828 -4.26453125 25.40847656 -4.8515625 26.42382812 C-14.73156133 43.36578067 -14.73156133 43.36578067 -18 45 C-25.0521327 45.56872038 -25.0521327 45.56872038 -28.5 43.5 C-30.65411632 39.90980613 -30.80445008 37.01445537 -30 33 C-27.93535045 28.41737567 -25.36008097 24.16187481 -22.75 19.875 C-22.05963691 18.71055948 -21.37082145 17.54519996 -20.68359375 16.37890625 C-9.51570541 -2.42217956 -9.51570541 -2.42217956 0 0 Z " fill="#000000" transform="translate(102,464)"/>
<path d="M0 0 C2.84209315 2.55059642 3.90173295 4.00352551 4.27807617 7.81982422 C3.95694952 11.4923402 2.96772146 13.52404466 1.11328125 16.6953125 C0.1996582 18.26345703 0.1996582 18.26345703 -0.73242188 19.86328125 C-1.37759766 20.93964844 -2.02277344 22.01601563 -2.6875 23.125 C-3.31333984 24.20910156 -3.93917969 25.29320312 -4.58398438 26.41015625 C-10.09075386 35.73994999 -10.09075386 35.73994999 -15 39 C-18.92016134 39 -21.17160572 38.55226285 -24.4375 36.375 C-26.55946635 33.14961116 -26.74310182 30.69710536 -26 27 C-24.22161862 22.92315516 -22.00817606 19.13979412 -19.75 15.3125 C-19.16347656 14.28060547 -18.57695312 13.24871094 -17.97265625 12.18554688 C-9.59702803 -2.31652401 -9.59702803 -2.31652401 0 0 Z " fill="#000000" transform="translate(387,408)"/>
<path d="M0 0 C2.73209073 1.63925444 2.97597323 2.91881703 3.88671875 5.99609375 C4.57827759 11.37303314 1.5740364 15.46042609 -1.0625 19.9375 C-1.54138672 20.79279297 -2.02027344 21.64808594 -2.51367188 22.52929688 C-10.93694827 37.31231609 -10.93694827 37.31231609 -16.5625 39.1875 C-20.33208339 38.98188636 -22.06593843 38.32999007 -25 36 C-26.69140502 32.61718996 -26.7006954 29.62870167 -26 26 C-23.94756892 21.47958758 -21.37751756 17.33097081 -18.75 13.125 C-18.05980939 11.97479039 -17.37099481 10.8237539 -16.68359375 9.671875 C-9.40781751 -2.22366596 -9.40781751 -2.22366596 0 0 Z " fill="#000000" transform="translate(98,408)"/>
<path d="M0 0 C2.375 1.5625 2.375 1.5625 4 4 C5.38460335 12.35637372 1.05701749 17.98058754 -3.25 24.875 C-3.94019061 26.02520961 -4.62900519 27.1762461 -5.31640625 28.328125 C-11.05450916 37.70964472 -11.05450916 37.70964472 -15 39 C-18.3568842 38.82332188 -20.96417908 38.62149255 -23.875 36.875 C-25.61262825 33.97895292 -26.20470004 31.33060814 -26 28 C-24.69258675 24.46387203 -22.84699286 21.30498914 -20.9375 18.0625 C-20.45861328 17.20720703 -19.97972656 16.35191406 -19.48632812 15.47070312 C-9.26988622 -2.45935757 -9.26988622 -2.45935757 0 0 Z " fill="#000000" transform="translate(330,408)"/>
<path d="M0 0 C2.375 1.5625 2.375 1.5625 4 4 C5.38460335 12.35637372 1.05701749 17.98058754 -3.25 24.875 C-3.94019061 26.02520961 -4.62900519 27.1762461 -5.31640625 28.328125 C-11.05450916 37.70964472 -11.05450916 37.70964472 -15 39 C-18.3568842 38.82332188 -20.96417908 38.62149255 -23.875 36.875 C-25.61262825 33.97895292 -26.20470004 31.33060814 -26 28 C-24.69258675 24.46387203 -22.84699286 21.30498914 -20.9375 18.0625 C-20.45861328 17.20720703 -19.97972656 16.35191406 -19.48632812 15.47070312 C-9.26988622 -2.45935757 -9.26988622 -2.45935757 0 0 Z " fill="#000000" transform="translate(154,408)"/>
<path d="M0 0 C2.7858424 2.56590747 3.9082195 4.03862408 4.27050781 7.83349609 C3.96572255 11.40124413 3.06842158 13.38267901 1.296875 16.4765625 C0.72839844 17.476875 0.15992187 18.4771875 -0.42578125 19.5078125 C-1.02777344 20.53648437 -1.62976563 21.56515625 -2.25 22.625 C-2.83652344 23.66140625 -3.42304687 24.6978125 -4.02734375 25.765625 C-10.67194222 37.32274683 -10.67194222 37.32274683 -16.4375 39 C-20 39 -20 39 -22.875 37.1875 C-25.3500342 34.63967068 -25.93250054 33.75515436 -26.24731445 30.2331543 C-25.96020332 26.47973595 -24.95792944 24.49230977 -23.04296875 21.26953125 C-22.11581055 19.69461914 -22.11581055 19.69461914 -21.16992188 18.08789062 C-20.51572266 17.00701172 -19.86152344 15.92613281 -19.1875 14.8125 C-18.54490234 13.72001953 -17.90230469 12.62753906 -17.24023438 11.50195312 C-8.89102471 -2.54029277 -8.89102471 -2.54029277 0 0 Z " fill="#000000" transform="translate(41,408)"/>
<path d="M0 0 C3.44652326 2.44128731 4.78056289 3.82966874 5.5625 8 C4.72463485 12.46861416 2.64941243 14.85710612 -1.09008789 17.44824219 C-3.62896258 18.9964174 -6.20504998 20.44553501 -8.8125 21.875 C-9.68970703 22.38546875 -10.56691406 22.8959375 -11.47070312 23.421875 C-15.61720095 25.71687006 -18.16683296 27.00981158 -22.98046875 26.953125 C-26.85538011 25.72999645 -28.12170876 24.60005822 -30 21 C-30 17.30804246 -29.82778461 15.00964638 -27.453125 12.11328125 C-24.11439979 9.23708645 -20.5251812 7.00854319 -16.75 4.75 C-16.02425781 4.29109375 -15.29851562 3.8321875 -14.55078125 3.359375 C-9.42764987 0.29097546 -5.97352366 -0.70502962 0 0 Z " fill="#000000" transform="translate(250,63)"/>
<path d="M0 0 C3.53836039 0.72970078 5.00266818 2.53166754 7.0078125 5.4140625 C7.45382439 9.93046294 6.74308811 12.62757598 4.48828125 16.5234375 C3.69647461 17.90208984 3.69647461 17.90208984 2.88867188 19.30859375 C2.32986328 20.25089844 1.77105469 21.19320312 1.1953125 22.1640625 C0.64810547 23.12183594 0.10089844 24.07960938 -0.46289062 25.06640625 C-4.5766039 32.13700677 -4.5766039 32.13700677 -7.9921875 34.4140625 C-11.99768937 34.85911826 -14.32010381 34.75725417 -17.9296875 32.9140625 C-20.28174888 30.06307901 -20.49337057 28.36510426 -20.39526367 24.72314453 C-19.6013512 20.1750984 -17.0790589 16.47747015 -14.6796875 12.6015625 C-14.18017578 11.75658203 -13.68066406 10.91160156 -13.16601562 10.04101562 C-6.97481989 -0.28311077 -6.97481989 -0.28311077 0 0 Z " fill="#000000" transform="translate(203.9921875,18.5859375)"/>
<path d="M0 0 C6.31785252 1.89417925 9.44153778 9.17891347 12.41015625 14.56640625 C12.86455078 15.35208984 13.31894531 16.13777344 13.78710938 16.94726562 C16.1927139 21.27011887 17.91865783 24.54325759 17.09765625 29.62890625 C14.48975797 33.2641584 13.02742045 34.46287693 8.59765625 35.25390625 C3.67891484 34.37555957 1.62287526 31.76878239 -1.23876953 27.75390625 C-2.62059392 25.63809785 -3.92485956 23.48931295 -5.21484375 21.31640625 C-5.66923828 20.59517578 -6.12363281 19.87394531 -6.59179688 19.13085938 C-9.6385859 14.02233341 -10.5386446 10.57414146 -9.90234375 4.62890625 C-7.4168839 0.48647317 -4.70555012 0.1590345 0 0 Z " fill="#000000" transform="translate(83.90234375,18.37109375)"/>
<path d="M0 0 C3.4799444 1.44373846 6.61376369 3.3323299 9.8125 5.3125 C10.65748047 5.81201172 11.50246094 6.31152344 12.37304688 6.82617188 C19.84274025 11.30561469 19.84274025 11.30561469 22 14 C22.38581672 18.0510756 22.55676469 20.72271629 20.9375 24.4375 C18.7780103 26.17902395 16.9917516 27.0428346 14.20703125 27.2890625 C5.42906351 26.13938177 -3.97645759 19.11282261 -11 14 C-12.60420518 10.79158965 -12.47462745 7.4806013 -12 4 C-9.15419828 -0.74300287 -5.09428758 -0.84563666 0 0 Z " fill="#000000" transform="translate(42,63)"/>
<path d="M0 0 C2.5 1.5 2.5 1.5 4 4 C4.77403846 9.41826923 4.77403846 9.41826923 4 12 C0.34654772 16.39392253 -3.95365467 19.01796344 -8.875 21.75 C-9.55691406 22.14832031 -10.23882812 22.54664063 -10.94140625 22.95703125 C-15.27771457 25.39362354 -18.93367728 26.75666677 -24 27 C-26.94755732 25.65437601 -28.54277272 24.91445456 -30 22 C-30.65547703 16.28798587 -30.65547703 16.28798587 -30 14 C-25.8444593 9.96611611 -21.13375098 7.05441366 -16.125 4.1875 C-15.45597656 3.78080078 -14.78695312 3.37410156 -14.09765625 2.95507812 C-9.14890578 0.11836663 -5.69858348 -0.55521531 0 0 Z " fill="#000000" transform="translate(60,173)"/>
<path d="M0 0 C1.14662109 0.00193359 1.14662109 0.00193359 2.31640625 0.00390625 C4.93857711 0.53993013 5.81402324 1.34030357 7.4375 3.4375 C9.09960548 8.42381645 8.70590198 13.59129429 8.75 18.8125 C8.77900391 19.94945313 8.80800781 21.08640625 8.83789062 22.2578125 C8.90159326 30.60775751 8.90159326 30.60775751 6.6328125 34.6640625 C3.55303957 37.15199294 1.36639513 37.4375 -2.5625 37.4375 C-5.51005732 36.09187601 -7.10527272 35.35195456 -8.5625 32.4375 C-8.86157141 27.81818733 -8.84060074 23.19034765 -8.875 18.5625 C-8.90400391 17.26957031 -8.93300781 15.97664063 -8.96289062 14.64453125 C-8.97126953 13.40316406 -8.97964844 12.16179688 -8.98828125 10.8828125 C-9.00286377 9.74344238 -9.01744629 8.60407227 -9.0324707 7.43017578 C-8.20789818 2.17946932 -5.21369689 -0.13232733 0 0 Z " fill="#000000" transform="translate(142.5625,2.5625)"/>
<path d="M0 0 C1.27552734 -0.02384766 2.55105469 -0.04769531 3.86523438 -0.07226562 C14.27926744 -0.05588277 14.27926744 -0.05588277 17.40625 2.91015625 C19.45471356 6.19059671 19.77502909 7.76234485 19.0625 11.5625 C16.91159549 14.90011045 15.85837201 16.29720933 12.0625 17.5625 C8.10850107 17.82103371 4.14905198 17.79387931 0.1875 17.8125 C-1.44638672 17.8434375 -1.44638672 17.8434375 -3.11328125 17.875 C-4.16644531 17.88015625 -5.21960938 17.8853125 -6.3046875 17.890625 C-7.26487793 17.8999707 -8.22506836 17.90931641 -9.21435547 17.91894531 C-12.44381927 17.49622547 -14.31656308 16.46495167 -16.9375 14.5625 C-18.50221233 11.43307535 -18.63451958 7.95167777 -17.9375 4.5625 C-13.26716614 -1.43592071 -7.00975157 -0.06003314 0 0 Z " fill="#000000" transform="translate(31.9375,122.4375)"/>
</svg>
